<svg xmlns="http://www.w3.org/2000/svg" viewBox="0 0 64 64" role="img" aria-label="Starling logo">
  <defs>
    <linearGradient id="g" x1="0" y1="0" x2="1" y2="1">
      <stop offset="0" stop-color="#7c9cff"/>
      <stop offset="1" stop-color="#3358e0"/>
    </linearGradient>
  </defs>
  <circle cx="32" cy="32" r="30" fill="url(#g)"/>
  <!-- A swift, swooping starling in flight -->
  <path fill="#fff" d="M14 38c8 1 14-2 19-7 4-4 7-9 13-11-3 5-4 9-3 13 4-2 7-2 10 0-4 1-7 3-9 7-3 5-8 8-15 8-4 0-7-1-9-3 2 0 4-1 5-2-5-1-9-3-11-6z"/>
  <circle cx="44" cy="22" r="1.6" fill="#1b2a6b"/>
</svg>
