<svg xmlns="http://www.w3.org/2000/svg" viewBox="0 0 849 912" role="img" aria-label="Starling logo">
  <style>
    /* Dark ink on light backgrounds, light ink on dark — adapts to the viewer. */
    path { fill: #14161d; }
    @media (prefers-color-scheme: dark) { path { fill: #e8ecf6; } }
  </style>
  <g transform="translate(0,912) scale(0.1,-0.1)" stroke="none">
    <path d="M1492 9049 c-6 -41 -16 -165 -23 -277 -18 -303 7 -649 67 -909 15
-69 20 -77 113 -180 112 -125 313 -316 626 -598 267 -241 698 -640 895 -829
230 -222 720 -710 720 -718 0 -8 -459 358 -835 668 -441 362 -483 397 -780
635 -372 298 -914 719 -928 719 -10 0 -4 -60 24 -220 46 -266 118 -533 201
-745 43 -109 60 -139 102 -184 78 -82 249 -205 756 -544 622 -416 1190 -808
1190 -823 0 -3 -28 11 -62 30 -35 19 -142 77 -238 129 -96 52 -301 163 -455
247 -450 246 -1358 701 -1371 687 -5 -5 36 -124 79 -228 94 -227 225 -463 332
-602 84 -108 189 -169 625 -367 124 -56 286 -130 360 -164 74 -34 251 -116
392 -181 142 -65 257 -120 255 -121 -3 -3 -156 41 -532 152 -449 133 -916 259
-1034 279 l-44 7 28 -48 c149 -261 266 -428 388 -553 100 -102 184 -140 687
-311 228 -77 395 -138 370 -135 -25 3 -164 18 -310 35 -328 37 -570 60 -627
60 -41 0 -43 -1 -33 -21 6 -11 51 -73 100 -138 132 -175 281 -321 382 -372 53
-27 172 -54 399 -90 106 -16 195 -32 197 -34 2 -1 -30 -8 -70 -15 -71 -12
-251 -47 -355 -70 -29 -6 -53 -15 -53 -20 0 -14 170 -167 249 -224 42 -30 110
-71 151 -92 74 -38 77 -39 206 -42 72 -2 214 3 316 12 101 9 195 16 209 16 13
-1 -52 -31 -146 -69 -602 -241 -1062 -515 -1915 -1139 -702 -514 -1824 -1397
-2055 -1616 l-50 -48 155 80 c85 44 218 115 295 159 77 44 219 125 315 180 96
55 328 188 515 295 509 293 745 420 1080 581 475 228 901 382 1194 432 51 9
95 15 97 13 1 -2 -66 -32 -149 -68 -715 -301 -1549 -747 -2222 -1188 -170
-111 -439 -298 -505 -352 l-25 -20 30 5 c17 3 145 18 285 35 140 16 370 43
510 60 230 27 566 64 818 90 l94 10 171 163 c397 375 668 592 869 693 152 77
301 119 648 183 444 82 685 145 945 248 519 204 919 497 1240 908 107 137 211
296 383 585 224 378 318 509 485 679 123 126 225 206 322 253 101 49 368 135
692 224 139 37 247 72 240 75 -23 13 -180 38 -302 49 -66 5 -246 10 -400 10
-154 0 -307 5 -340 10 -42 7 -121 39 -265 109 -303 147 -427 179 -649 168
-362 -17 -698 -159 -1063 -451 l-106 -85 18 -83 c55 -253 161 -383 432 -529
l93 -50 -67 6 c-227 20 -434 138 -516 293 -67 126 -96 259 -142 637 -17 138
-39 293 -50 346 -47 232 -146 441 -313 664 -149 198 -327 393 -1122 1230 -538
566 -773 823 -1190 1300 -269 307 -696 814 -971 1153 l-21 26 -11 -75z m5287
-4734 c41 -21 77 -68 85 -110 6 -28 2 -48 -16 -83 -72 -144 -278 -95 -278 66
0 100 120 174 209 127z"/>
  </g>
</svg>
